<?xml version="1.0" encoding="UTF-8" standalone="no"?>
<svg
   xmlns:dc="http://purl.org/dc/elements/1.1/"
   xmlns:cc="http://creativecommons.org/ns#"
   xmlns:rdf="http://www.w3.org/1999/02/22-rdf-syntax-ns#"
   xmlns:svg="http://www.w3.org/2000/svg"
   xmlns="http://www.w3.org/2000/svg"
   xmlns:sodipodi="http://sodipodi.sourceforge.net/DTD/sodipodi-0.dtd"
   xmlns:inkscape="http://www.inkscape.org/namespaces/inkscape"
   width="300"
   height="300"
   viewBox="0 0 793.75 793.75"
   version="1.1"
   id="svg8"
   inkscape:version="1.0.2-2 (e86c870879, 2021-01-15)"
   sodipodi:docname="congressional-stock-trades.svg"
   inkscape:export-filename="C:\Users\metta\dev\00-projects\Misc\congressional-stock-trades-api\assets\Trade-Analysis-PNG-File.png"
   inkscape:export-xdpi="200"
   inkscape:export-ydpi="200">
  <defs
     id="defs2">
    <inkscape:path-effect
       effect="powerstroke"
       id="path-effect1137"
       is_visible="true"
       lpeversion="1"
       offset_points="20,1.322915"
       sort_points="true"
       interpolator_type="CubicBezierJohan"
       interpolator_beta="0.2"
       start_linecap_type="zerowidth"
       linejoin_type="extrp_arc"
       miter_limit="4"
       scale_width="1"
       end_linecap_type="zerowidth" />
  </defs>
  <sodipodi:namedview
     id="base"
     pagecolor="#ffffff"
     bordercolor="#666666"
     borderopacity="1.0"
     inkscape:pageopacity="0.0"
     inkscape:pageshadow="2"
     inkscape:zoom="2"
     inkscape:cx="144.0626"
     inkscape:cy="148.24223"
     inkscape:document-units="in"
     inkscape:current-layer="layer1"
     inkscape:document-rotation="0"
     showgrid="true"
     inkscape:window-width="1920"
     inkscape:window-height="1009"
     inkscape:window-x="-8"
     inkscape:window-y="-8"
     inkscape:window-maximized="1"
     units="px"
     inkscape:pagecheckerboard="false"
     showborder="true"
     borderlayer="false"
     inkscape:showpageshadow="true"
     scale-x="10">
    <inkscape:grid
       type="xygrid"
       id="grid1917"
       dotted="false"
       snapvisiblegridlinesonly="true"
       visible="true" />
  </sodipodi:namedview>
  <metadata
     id="metadata5">
    <rdf:RDF>
      <cc:Work
         rdf:about="">
        <dc:format>image/svg+xml</dc:format>
        <dc:type
           rdf:resource="http://purl.org/dc/dcmitype/StillImage" />
        <dc:title />
      </cc:Work>
    </rdf:RDF>
  </metadata>
  <g
     inkscape:label="Layer 1"
     inkscape:groupmode="layer"
     id="layer1"
     style="opacity:1">
    <path
       style="fill:#008000;stroke:none;stroke-width:5.45477;stroke-linecap:round;stroke-miterlimit:4;stroke-dasharray:none;paint-order:markers stroke fill"
       d="m 343.95833,690.56139 c -46.59989,-6.31841 -84.3503,-17.77944 -125.80429,-38.19417 -34.63437,-17.0563 -63.82047,-37.1586 -94.84917,-65.32859 l -9.74278,-8.84518 0.7694,-7.58534 c 2.33657,-23.03564 10.99019,-44.23353 22.93279,-56.17613 8.9785,-8.97849 16.41545,-12.71101 38.77039,-19.45839 38.35484,-11.57662 76.42452,-28.86391 108.47889,-49.25988 4.75813,-3.02755 8.99599,-5.13879 9.41746,-4.69162 0.42147,0.44717 5.44352,15.61524 11.1601,33.70682 11.00219,34.81916 21.37854,67.61161 32.50353,102.72095 3.72118,11.74365 8.93763,28.23382 11.59211,36.64483 2.6545,8.41099 5.1609,15.29141 5.56979,15.28981 0.40891,-8.6e-4 6.07908,-15.14492 12.6004,-33.65183 l 11.85692,-33.64893 -5.71682,-8.76383 C 362.6659,536.71579 356.0771,520.5106 356.0771,510.47544 c 0,-10.70033 7.4674,-20.97476 17.9675,-24.72159 3.27979,-1.17035 10.66027,-2.28726 17.41153,-2.63493 9.87955,-0.50877 13.0119,-0.21064 19.95979,1.8997 25.60117,7.77613 27.58584,30.33528 5.73455,65.18306 -3.75511,5.98854 -6.83471,11.58283 -6.84355,12.43175 -0.0236,2.27342 22.39928,65.59261 23.22939,65.59649 1.25391,0.006 10.78433,-28.89189 35.77929,-108.48845 13.4553,-42.84849 24.83793,-78.33437 25.29472,-78.85752 0.4568,-0.52315 4.40169,1.32054 8.76645,4.09709 34.44856,21.91372 70.53123,38.19123 112.28977,50.65582 8.62377,2.57413 18.6534,6.2598 22.28804,8.19037 12.55676,6.66962 22.73665,18.82568 29.03333,34.6694 3.68594,9.27455 7.59616,26.99659 7.62143,34.54204 0.0178,5.32313 -0.12431,5.52921 -10.08088,14.61527 -30.92407,28.22042 -58.02159,46.8305 -94.35323,64.80008 -40.95933,20.25845 -78.86892,31.71584 -126.24829,38.15593 -22.44933,3.05145 -77.30178,3.0248 -99.96861,-0.0486 z M 443.41131,430.582 c 1.18211,-3.18003 1.83038,-8.76151 1.84323,-15.86981 0.0222,-12.30489 -2.27439,-20.107 -9.06045,-30.77989 l -3.79286,-5.9653 -63.26522,-0.47657 c -60.03589,-0.45225 -63.65799,-0.59879 -70.96001,-2.87065 -22.32409,-6.94564 -37.91239,-20.04221 -47.75582,-40.12226 -8.63355,-17.61194 -8.76767,-19.1551 -8.3291,-95.8304 0.42611,-74.49712 0.19195,-72.08803 8.69061,-89.41354 5.69241,-11.60464 20.45606,-26.62865 32.00575,-32.57016 17.19404,-8.84514 11.30057,-8.4028 111.95428,-8.4028 84.0713,0 90.47908,0.1401 96.88976,2.11838 27.66836,8.53821 47.25551,29.21333 53.80609,56.79479 2.22769,9.37974 2.31772,12.93643 1.99368,78.75314 l -0.33938,68.92974 -3.38454,9.69639 c -8.50345,24.36145 -27.09557,42.26913 -51.62527,49.72473 -3.83847,1.16666 -4.35763,1.83149 -5.65572,7.24247 -4.13016,17.21648 -13.54736,34.44114 -23.81857,43.56566 -5.62063,4.99315 -15.46097,10.34944 -19.05126,10.37002 -1.83265,0.0104 -1.84269,-0.32745 -0.1452,-4.89394 z m 42.50967,-191.88041 v -91.17926 l -5.48229,-0.35178 -5.4823,-0.35178 v 85.46426 85.46427 l -85.69697,0.29594 -85.69696,0.29593 -0.37866,3.31343 c -0.20827,1.82238 -0.0678,4.55224 0.31229,6.06636 l 0.69094,2.75295 90.86698,-0.29554 90.86697,-0.29552 z M 376.89682,277.9433 c 6.48752,-14.60023 13.07363,-29.39334 14.63578,-32.87361 l 2.8403,-6.32775 7.45168,22.77464 c 4.09843,12.52606 7.85512,22.77464 8.34821,22.77464 0.49307,0 2.48277,-5.58328 4.42155,-12.4073 3.78279,-13.31444 26.63195,-91.03585 27.50816,-93.56896 0.36516,-1.05565 2.13407,-0.20737 5.75525,2.75992 2.87544,2.3562 5.53194,3.98013 5.90333,3.60874 0.76514,-0.76514 -7.34714,-27.3913 -8.81188,-28.9224 -0.52324,-0.54696 -6.66654,3.34836 -13.6518,8.65625 -6.98524,5.3079 -12.47684,9.87487 -12.20355,10.14884 0.2733,0.27396 3.39338,0.36394 6.93351,0.19995 5.76101,-0.26685 6.37129,-0.0769 5.81437,1.81022 -0.34224,1.15961 -5.10476,17.67828 -10.5834,36.70816 -5.47864,19.02988 -10.33223,35.26286 -10.78579,36.0733 -0.48644,0.86924 -3.83069,-6.1018 -8.15487,-16.99873 -4.03164,-10.15972 -7.64522,-18.45715 -8.03018,-18.43872 -0.38496,0.0185 -7.13206,14.69079 -14.99352,32.60524 -7.86147,17.91445 -14.64888,32.97082 -15.08314,33.45861 -0.43425,0.48777 -4.12208,-7.69239 -8.19516,-18.17815 -4.07308,-10.48576 -7.67317,-19.05517 -8.00021,-19.04314 -1.32774,0.0488 -31.20886,58.25505 -30.65165,59.70712 0.41934,1.09281 2.27047,1.46238 6.09627,1.21709 l 5.49408,-0.35227 8.83573,-16.69908 c 4.85965,-9.1845 9.29747,-16.853 9.86183,-17.04112 0.56434,-0.18809 4.30663,8.022 8.31618,18.24469 4.00956,10.22268 7.70485,18.15087 8.21176,17.61819 0.50692,-0.53269 6.22964,-12.91415 12.71716,-27.51437 z"
       id="path846" />
  </g>
</svg>
